<svg version="1.2" xmlns="http://www.w3.org/2000/svg" viewBox="0 0 1538 1385" width="1538" height="1385">
	<title>footer-logo-new-svg</title>
	<style>
		.s0 { fill: #343a3d } 
	</style>
	<path id="Layer" fill-rule="evenodd" class="s0" d="m1152.1 81.7c2.3 6.8 4 13.9 5.1 21.1 1 7.2 1.4 14.5 1.2 21.8-0.3 7.2-1.2 14.5-2.7 21.6q-1.2 5.3-2.7 10.6-1.5 5.3-3.3 10.5-1.8 5.2-3.8 10.3-2.1 5.1-4.4 10c-7 15-13.1 25-20.4 38.4l-221.6 383.2c-8.4 13.1-13.8 23.4-23 36.5q-3.1 4.6-6.4 8.9-3.3 4.4-7 8.5-3.6 4.2-7.4 8.1-3.9 3.9-8 7.5c-10.6 10-23 17.8-36.5 23.2-13.5 5.3-27.9 8.1-42.5 8.1-14.5 0-28.9-2.8-42.4-8.1-13.5-5.4-25.9-13.2-36.5-23.2q-4.1-3.6-8-7.5-3.8-3.9-7.4-8.1-3.7-4.1-7-8.5-3.3-4.3-6.4-8.9c-9.2-13.1-14.6-23.4-23-36.5l-222.4-383.9c-7.3-13.8-13.4-23.8-20.3-38.4q-2.4-5-4.5-10.1-2-5.1-3.8-10.3-1.8-5.2-3.3-10.4-1.5-5.3-2.6-10.7c-1.5-7.1-2.3-14.2-2.5-21.5-0.1-7.2 0.4-14.4 1.5-21.5 1.1-7.1 2.8-14.2 5.2-21 2.3-6.8 5.3-13.4 8.8-19.7 3.6-6.2 7.8-12 12.4-17.4 4.6-5.4 9.7-10.4 15.3-15 5.5-4.5 11.4-8.5 17.7-11.9 6.2-3.5 12.8-6.4 19.5-8.7q5.2-1.7 10.6-3.1 5.3-1.4 10.7-2.4 5.4-1.1 10.8-1.8 5.4-0.7 10.9-1.1c16.2 0 473.9 0 489.3 0 15.4 0 26.9 0 43 0q5.5 0.4 10.9 1.1 5.5 0.7 10.9 1.8 5.4 1 10.7 2.4 5.3 1.4 10.5 3.1c6.9 2.3 13.5 5.1 19.9 8.5 6.3 3.5 12.4 7.5 18 12 5.6 4.5 10.8 9.5 15.6 15 4.7 5.4 8.9 11.3 12.6 17.5 3.5 6.4 6.4 13.1 8.7 20zm-28.7 58.7c1.3-5 2.1-10.2 2.4-15.4 0.4-5.2 0.2-10.4-0.4-15.6-0.6-5.2-1.7-10.3-3.3-15.2-1.5-5-3.6-9.8-6-14.4-2.6-4.6-5.7-8.8-9.1-12.8-3.5-4-7.3-7.6-11.3-10.9-4.1-3.2-8.5-6.1-13.1-8.6-4.7-2.5-9.5-4.5-14.5-6.1q-9.3-2.7-18.9-4.5-9.5-1.8-19.2-2.8-9.6-1-19.3-1.2-9.7-0.2-19.4 0.4h-443.2q-9.7-0.6-19.4-0.4-9.7 0.2-19.3 1.2-9.7 1-19.2 2.8-9.5 1.8-18.9 4.5c-5 1.6-9.8 3.6-14.4 6.1-4.7 2.5-9 5.4-13.1 8.6-4.1 3.3-7.9 6.9-11.4 10.9-3.4 4-6.4 8.2-9.1 12.8-2.6 4.5-4.7 9.4-6.4 14.3-1.7 5-3 10.1-3.7 15.4-0.8 5.2-1.1 10.4-0.8 15.7 0.2 5.2 0.9 10.5 2.1 15.6q2.2 9.2 5.3 18.2 3 9 6.8 17.7 3.8 8.7 8.4 17 4.5 8.3 9.8 16.2l222.4 384 3 5.3c-0.3-30.6 1-61.3 3.8-91.9 2.9-30.5 7.3-60.9 13.3-91 5.9-30.1 13.4-59.9 22.5-89.2 9-29.4 19.5-58.2 31.5-86.5q-19.2 12-37.3 25.6-18.1 13.6-34.9 28.7-16.9 15.1-32.4 31.6-15.4 16.5-29.4 34.3 2.2-11.8 5.1-23.4 3-11.6 6.5-23.1 3.6-11.4 7.8-22.7 4.2-11.2 9-22.2 1.1-2.9 2.4-5.7 1.3-2.8 2.9-5.4 1.6-2.7 3.5-5.2 1.8-2.5 3.8-4.8 2.3-2.1 4.6-4.1 2.3-2 4.8-3.8 2.5-1.8 5-3.5 2.6-1.7 5.2-3.2 5.4-2.6 10.9-4.9 5.5-2.4 11.2-4.4 5.6-2 11.3-3.7 5.7-1.7 11.6-3.1c-44.2-6.9-95.3-2.3-190.1 55.3q6.7-14.5 14.7-28.4 8-13.9 17.2-27 9.1-13.2 19.4-25.4 10.3-12.3 21.6-23.7 1.3-1.4 2.6-2.7 1.4-1.3 2.9-2.5 1.5-1.2 3.1-2.2 1.6-1 3.3-1.8 1.7-0.7 3.5-1.2 1.7-0.5 3.5-0.9 1.8-0.3 3.6-0.5 1.8-0.1 3.7-0.1 11-0.4 22.1 0.4 11.1 0.7 22 2.5 10.9 1.8 21.6 4.8 10.7 2.9 21 6.9-26.8-46.4-163.6-68.3 20.6-4.6 41.5-7.4 20.9-2.9 41.9-4.1 21-1.1 42.1-0.6 21 0.6 42 2.9 1.2 0.1 2.4 0.2 1.2 0.2 2.4 0.5 1.2 0.2 2.4 0.5 1.2 0.3 2.4 0.7 1.1 0.4 2.2 0.9 1.1 0.5 2.2 1.1 1 0.6 2 1.2 1.1 0.7 2 1.4 7.3 4.6 14.1 9.9 6.8 5.3 13.1 11.2 6.3 5.9 12 12.3 5.7 6.5 10.8 13.4 6.2-4.4 12.7-8.5 6.5-4.1 13.2-7.8 6.8-3.6 13.7-6.8 7-3.3 14.1-6 1.2-0.7 2.5-1.2 1.2-0.4 2.6-0.8 1.3-0.3 2.6-0.5 1.3-0.2 2.7-0.2 1.4-0.2 2.9-0.2 1.4-0.1 2.9-0.1 1.4 0 2.8 0.1 1.5 0 2.9 0.2c14 2.2 27.8 5.5 41.3 9.9 13.5 4.3 26.6 9.6 39.3 15.9 12.6 6.3 24.8 13.6 36.4 21.7 11.6 8.2 22.6 17.2 32.8 27-15.5-5.1-31.4-8.8-47.5-11.2-16.2-2.4-32.5-3.5-48.8-3.3-16.3 0.3-32.5 1.9-48.6 4.8-16 3-31.8 7.2-47.1 12.7q13.5-0.9 27.1-0.5 13.6 0.5 27 2.4 13.5 1.9 26.7 5.2 13.2 3.3 25.9 7.9 1.8 0.8 3.4 1.7 1.7 0.8 3.4 1.8 1.6 1 3.2 2 1.6 1.1 3.1 2.2 1.5 1.3 2.8 2.8 1.3 1.5 2.4 3.2 1.1 1.6 2 3.4 0.9 1.8 1.6 3.6 6.8 13.9 11.8 28.5 5.1 14.6 8.4 29.7 3.3 15.1 4.8 30.4 1.5 15.4 1.1 30.9c-60.6-82.6-86-102.2-162.8-115.2q6.3 3.2 12.4 6.9 6.1 3.6 11.9 7.7 5.8 4 11.4 8.4 5.5 4.5 10.8 9.2 1.9 1.5 3.7 3.1 1.9 1.5 3.6 3.3 1.7 1.7 3.2 3.6 1.5 1.9 2.9 3.8 1.2 2.5 2 5.1 0.8 2.6 1.4 5.3 0.5 2.6 0.7 5.3 0.2 2.7 0.1 5.5 0.1 12.5-1.3 25-1.5 12.5-4.5 24.8-2.9 12.2-7.3 24-4.5 11.8-10.3 22.9c-0.6-14.9-2.8-29.7-6.6-44.2-3.9-14.4-9.3-28.4-16.2-41.6-6.9-13.3-15.3-25.7-25-37.1-9.6-11.4-20.5-21.7-32.4-30.7-9 24.5-16.7 49.4-23.1 74.7-6.4 25.3-11.6 50.8-15.4 76.6-3.8 25.8-6.4 51.7-7.6 77.8-1.2 26-1.1 52.1 0.3 78.1q-0.2 7.3 0.7 14.5 0.9 7.2 3 14.1 2.2 7 5.4 13.5 3.2 6.5 7.5 12.4c3.3 3.6 7.1 6.7 11.1 9.4 4.1 2.8 8.5 5 13.1 6.7 4.5 1.7 9.3 2.9 14.1 3.6 4.9 0.6 9.8 0.7 14.7 0.3 6.3-0.3 12.5-1.2 18.7-2.6 6.1-1.5 12.1-3.5 17.9-6 5.7-2.6 11.3-5.7 16.5-9.3 5.2-3.5 10-7.6 14.5-12.1q10.3-10.9 19.8-22.5 9.5-11.7 18.1-24 8.5-12.4 16.2-25.3 7.6-13 14.2-26.5l167.1-288.7q5.2-7.9 9.8-16.2 4.5-8.3 8.4-17 3.8-8.7 6.8-17.7 3.1-9 5.3-18.2z"/>
	<path id="Layer" fill-rule="evenodd" class="s0" d="m103.8 1100.7v-169h-103.3l21.1-38.4h222.4v38.4h-90.3v169zm230.4-205.8v167.4h131.8v-167.4h50.6v157.4q0.6 5.1 0.2 10.2-0.5 5.2-1.9 10.1-1.4 4.9-3.8 9.5-2.4 4.6-5.6 8.6-4.8 3.1-10 5.3-5.3 2.3-10.8 3.6-5.5 1.3-11.2 1.7-5.7 0.4-11.4-0.2h-124.4q-5.5 0.5-11.1 0.2-5.5-0.4-10.9-1.6-5.4-1.3-10.5-3.5-5.1-2.1-9.8-5.1-3.2-4-5.6-8.6-2.4-4.5-3.8-9.5-1.4-4.9-1.9-10.1-0.4-5.1 0.2-10.2v-157.8zm231.2 206.2v-206.2h175.9q5-0.5 10-0.2 5.1 0.3 10 1.5 4.9 1.2 9.5 3.2 4.7 1.9 8.9 4.7 3 3 5.4 6.5 2.3 3.6 3.8 7.6 1.5 3.9 2.1 8.2 0.6 4.2 0.2 8.4v48.4q0.3 4.1-0.3 8.2-0.7 4.1-2.2 8-1.5 3.9-3.7 7.4-2.3 3.4-5.3 6.3-4.2 2.9-8.8 4.9-4.7 2-9.6 3.2-4.9 1.2-9.9 1.5-5.1 0.3-10.1-0.3h-28.4l98.3 76.7h-74.1l-84.5-77.5h-38.4v76.8zm153.6-170.5h-104.1v56.8h104.9q2.2 0.1 4.5-0.1 2.2-0.2 4.4-0.7 2.2-0.6 4.3-1.4 2.1-0.9 4-2 1.4-1.2 2.4-2.8 1-1.5 1.6-3.2 0.7-1.7 0.9-3.4 0.3-1.8 0.1-3.7v-23.8q0.2-1.8 0-3.6-0.2-1.8-0.9-3.5-0.6-1.7-1.7-3.2-1-1.5-2.4-2.7-2-1.1-4.1-1.8-2.2-0.8-4.4-1.2-2.3-0.5-4.6-0.6-2.3-0.1-4.5 0.1zm243.1 170.5h-50v-169.3h-89.8v-36.9h229.6v36.9h-89.8zm129.8-206.2h50.7v167.4h147.8v38.8h-198.5zm235 0h207.4v36.5h-156.7v44.9h95.2v35.3h-95.2v50.7h159.4v38.8h-210.1zm-1223.2 489.1v-206.5h181.3q5-0.6 10.1-0.2 5 0.4 9.9 1.6 5 1.2 9.6 3.3 4.6 2 8.8 4.9 3 2.9 5.3 6.4 2.3 3.5 3.8 7.4 1.5 4 2.1 8.1 0.6 4.2 0.3 8.4v24.9q0.1 3.3-0.4 6.5-0.6 3.2-1.8 6.2-1.2 3-3 5.7-1.7 2.7-4 5.1-2.7 2.4-5.8 4.3-3.1 2-6.4 3.5-3.3 1.5-6.8 2.6-3.5 1-7.1 1.5 3.8 0.4 7.4 1.5 3.7 1.1 7.1 2.8 3.4 1.7 6.6 3.9 3.1 2.1 5.8 4.8 2.4 2.7 4.3 5.7 1.9 3.1 3.1 6.4 1.3 3.4 2 6.9 0.6 3.5 0.6 7.1v26.5c0.1 3-0.1 6-0.8 9-0.6 2.9-1.7 5.8-3.1 8.4-1.4 2.7-3.2 5.1-5.3 7.3-2 2.2-4.4 4.1-7 5.7q-5.5 2.9-11.3 5-5.9 2.2-11.9 3.5-6.1 1.3-12.3 1.8-6.3 0.4-12.5 0zm158.3-172.8h-108.7v48.8h108.7q2.3 0.2 4.6 0.1 2.3-0.1 4.6-0.6 2.3-0.4 4.5-1.2 2.2-0.7 4.3-1.8 1.2-1 2.2-2.3 0.9-1.3 1.5-2.8 0.6-1.6 0.8-3.2 0.3-1.6 0.1-3.2v-19.6q0.3-1.6 0.1-3.3-0.2-1.7-0.8-3.2-0.6-1.6-1.6-3-1-1.3-2.3-2.4-2.1-1-4.3-1.7-2.2-0.7-4.5-1.1-2.3-0.3-4.6-0.4-2.3-0.1-4.6 0.2zm0 82.1h-108.7v52.6h108.7q2.5 0.3 5 0.2 2.5-0.1 5-0.6 2.5-0.5 4.9-1.4 2.4-0.8 4.6-2 1.3-1.3 2.3-2.9 1-1.6 1.7-3.3 0.6-1.7 0.9-3.6 0.2-1.8 0.1-3.6v-15.8q0.3-2 0-4-0.2-1.9-0.8-3.8-0.7-1.9-1.7-3.6-1.1-1.7-2.5-3.2-2.2-1.1-4.6-1.9-2.4-0.8-4.9-1.3-2.5-0.5-5-0.6-2.5-0.2-5 0zm118.6-116h207.4v36.5h-156.7v45.3h95.3v35.3h-95.3v50.7h159v38.8h-209.7zm237.7 206.6l122.6-206.2h48.7l124.1 206.2h-56.5l-25.7-45.3h-136.7l-26.1 45.3zm97.9-83h94.5l-48-87.5zm436.6 82.9h-159.4q-5.5 0.6-11.1 0.3-5.5-0.4-10.9-1.7-5.4-1.3-10.5-3.6-5.1-2.2-9.7-5.3-3.3-4-5.8-8.6-2.4-4.5-3.9-9.5-1.5-4.9-2-10.1-0.4-5.1 0.2-10.2v-109.1q-0.6-5.1-0.2-10.3 0.4-5.1 1.9-10.1 1.5-4.9 4-9.5 2.4-4.5 5.8-8.5 4.6-3.1 9.7-5.3 5.1-2.3 10.5-3.6 5.4-1.3 10.9-1.7 5.6-0.4 11.1 0.3h162.9l-24.6 38.4h-141.7v128.2h143.2zm247.7-87.2h-152.8v87.2h-51.1v-206.2h51.1v78.3h152.8v-78.3h50.3v206.2h-50.3zm93.3-114h-7.6v23h-5.4v-23h-7.3v-5h20.3zm6.2-5h9.6l8.1 22.6 8-22.6h9.6v28h-5.7v-22.6l-8.5 22.6h-7.3l-8.8-22.6v22.6h-5.4z"/>
</svg>