<?xml version="1.0" encoding="UTF-8" standalone="no"?>
<!-- Created with Inkscape (http://www.inkscape.org/) -->

<svg
   xmlns:dc="http://purl.org/dc/elements/1.1/"
   xmlns:cc="http://creativecommons.org/ns#"
   xmlns:rdf="http://www.w3.org/1999/02/22-rdf-syntax-ns#"
   xmlns:svg="http://www.w3.org/2000/svg"
   xmlns="http://www.w3.org/2000/svg"
   xmlns:sodipodi="http://sodipodi.sourceforge.net/DTD/sodipodi-0.dtd"
   xmlns:inkscape="http://www.inkscape.org/namespaces/inkscape"
   version="1.1"
   id="svg2"
   xml:space="preserve"
   width="510"
   height="335"
   viewBox="0 0 510 335"
   sodipodi:docname="Optic_Gaming.svg"
   inkscape:version="0.92.0 r15299"><metadata
     id="metadata8"><rdf:RDF><cc:Work
         rdf:about=""><dc:format>image/svg+xml</dc:format><dc:type
           rdf:resource="http://purl.org/dc/dcmitype/StillImage" /><dc:title></dc:title></cc:Work></rdf:RDF></metadata><defs
     id="defs6" /><sodipodi:namedview
     pagecolor="#ffffff"
     bordercolor="#666666"
     borderopacity="1"
     objecttolerance="10"
     gridtolerance="10"
     guidetolerance="10"
     inkscape:pageopacity="0"
     inkscape:pageshadow="2"
     inkscape:window-width="1920"
     inkscape:window-height="1018"
     id="namedview4"
     showgrid="false"
     fit-margin-top="5"
     fit-margin-left="5"
     fit-margin-bottom="5"
     fit-margin-right="5"
     inkscape:zoom="0.295"
     inkscape:cx="205.21467"
     inkscape:cy="135.13335"
     inkscape:window-x="1358"
     inkscape:window-y="-8"
     inkscape:window-maximized="1"
     inkscape:current-layer="g10" /><g
     id="g10"
     inkscape:groupmode="layer"
     inkscape:label="ink_ext_XXXXXX"
     transform="matrix(1.3333333,0,0,-1.3333333,-194.78533,599.86664)"><g
       id="g12"
       transform="matrix(0.12486598,0,0,0.12483995,-37.258936,-50.276067)"><path
         d="m 4027.49,3516.5 c -18.52,-116.06 -44.69,-221.43 -78.18,-316.67 h 552.3 v 316.67 h -474.12"
         style="fill:#87cf3a;fill-opacity:1;fill-rule:nonzero;stroke:none"
         id="path14"
         inkscape:connector-curvature="0" /><path
         d="M 4087.03,2340.67 H 2368.91 c 0,46.52 3.33,91.08 9.55,133.75 17.83,122.39 59.67,228.95 116.63,319.93 170.71,272.67 477.06,405.48 679.13,405.48 h 340.28 c 53.51,89.71 92.2,195.01 109.17,316.67 h -506.12 c -444.61,0 -841.45,-236.6 -1040.46,-722.42 -39.59,-96.65 -71.32,-203.18 -94.07,-319.66 -26.64,-136.44 -40.99,-286.47 -40.99,-450.42 h 2558.75 v 852.5 h -413.75 v -535.83"
         style="fill:#87cf3a;fill-opacity:1;fill-rule:nonzero;stroke:none"
         id="path16"
         inkscape:connector-curvature="0" /><path
         d="m 2650.08,3976.5 c -569.14,0 -1151.69,-488.11 -1151.69,-1502.08 0,0 172.52,0 484.63,0 22.75,116.48 54.48,223.01 94.07,319.66 -99.22,-0.42 -151.22,-0.96 -151.22,-0.96 0,583.69 474.01,864.68 767.42,864.68 h 940.01 c 0,-49.37 -3.37,-96.42 -9.63,-141.3 -16.97,-121.66 -55.66,-226.96 -109.17,-316.67 -166.17,-278.58 -475.06,-406.71 -719.41,-406.71 -109.69,0.64 -209.76,1.02 -300,1.23 -56.96,-90.98 -98.8,-197.54 -116.63,-319.93 137.03,0 288.29,0 452.67,0 553.65,0 939.97,218.6 1118.18,725.41 33.49,95.24 59.66,200.61 78.18,316.67 22.02,138.03 33.29,291.08 33.29,460 h -1410.7"
         style="fill:#111212;fill-opacity:1;fill-rule:nonzero;stroke:none"
         id="path18"
         inkscape:connector-curvature="0" /></g></g></svg>